<mxfile host="app.diagrams.net" agent="Mozilla/5.0 (Windows NT 10.0; Win64; x64) AppleWebKit/537.36 (KHTML, like Gecko) Chrome/131.0.0.0 Safari/537.36 OPR/116.0.0.0" version="26.0.11">
  <diagram name="Page-1" id="c4rcQlF6rWE2pEnYZoLN">
    <mxGraphModel dx="336" dy="158" grid="1" gridSize="10" guides="1" tooltips="1" connect="1" arrows="1" fold="1" page="1" pageScale="1" pageWidth="850" pageHeight="1100" math="0" shadow="0">
      <root>
        <mxCell id="0" />
        <mxCell id="1" parent="0" />
        <mxCell id="rm8E94z--C5_kuMlvCXG-1" value="&lt;b&gt;שרת &quot;תוכנית ארוחות בריאה&quot;&lt;/b&gt;" style="verticalAlign=top;align=left;spacingTop=8;spacingLeft=2;spacingRight=12;shape=cube;size=10;direction=south;fontStyle=4;html=1;whiteSpace=wrap;" parent="1" vertex="1">
          <mxGeometry x="30" y="160" width="180" height="250" as="geometry" />
        </mxCell>
        <mxCell id="rm8E94z--C5_kuMlvCXG-2" value="&amp;lt;&amp;lt;artifact&amp;gt;&amp;gt;&lt;br&gt;&lt;br&gt;&lt;b&gt;מנהל מערכת:כניסה&lt;/b&gt;" style="html=1;align=center;verticalAlign=middle;dashed=0;whiteSpace=wrap;" parent="1" vertex="1">
          <mxGeometry x="70" y="200" width="120" height="40" as="geometry" />
        </mxCell>
        <mxCell id="rm8E94z--C5_kuMlvCXG-4" value="&amp;lt;&amp;lt;artifact&amp;gt;&amp;gt;&lt;div&gt;&lt;b&gt;&lt;br&gt;&lt;/b&gt;&lt;/div&gt;&lt;div&gt;&lt;b&gt;לקוח:כניסה&lt;/b&gt;&lt;span style=&quot;color: rgba(0, 0, 0, 0); font-family: monospace; font-size: 0px; text-wrap-mode: nowrap; background-color: transparent;&quot;&gt;%3CmxGraphModel%3E%3Croot%3E%3CmxCell%20id%3D%220%22%2F%3E%3CmxCell%20id%3D%221%22%20parent%3D%220%22%2F%3E%3CmxCell%20id%3D%222%22%20value%3D%22%26amp%3Blt%3B%26amp%3Blt%3Bartifact%26amp%3Bgt%3B%26amp%3Bgt%3B%26lt%3Bbr%26gt%3B%26lt%3Bbr%26gt%3B%26lt%3Bb%26gt%3B%D7%9E%D7%A0%D7%94%D7%9C%20%D7%9E%D7%A2%D7%A8%D7%9B%D7%AA%3A%D7%9B%D7%A0%D7%99%D7%A1%D7%94%26lt%3B%2Fb%26gt%3B%22%20style%3D%22html%3D1%3Balign%3Dcenter%3BverticalAlign%3Dmiddle%3Bdashed%3D0%3BwhiteSpace%3Dwrap%3B%22%20vertex%3D%221%22%20parent%3D%221%22%3E%3CmxGeometry%20x%3D%2240%22%20y%3D%22200%22%20width%3D%22120%22%20height%3D%2240%22%20as%3D%22geometry%22%2F%3E%3C%2FmxCell%3E%3C%2Froot%3E%3C%2FmxGraphModel%3E&lt;/span&gt;&lt;/div&gt;" style="html=1;align=center;verticalAlign=middle;dashed=0;whiteSpace=wrap;" parent="1" vertex="1">
          <mxGeometry x="70" y="250" width="120" height="40" as="geometry" />
        </mxCell>
        <mxCell id="rm8E94z--C5_kuMlvCXG-5" value="&amp;lt;&amp;lt;artifact&amp;gt;&amp;gt;&lt;br&gt;&lt;br&gt;&lt;b&gt;לקוח:הרשמה&lt;/b&gt;" style="html=1;align=center;verticalAlign=middle;dashed=0;whiteSpace=wrap;" parent="1" vertex="1">
          <mxGeometry x="70" y="300" width="120" height="40" as="geometry" />
        </mxCell>
        <mxCell id="rm8E94z--C5_kuMlvCXG-6" value="&amp;lt;&amp;lt;artifact&amp;gt;&amp;gt;&lt;br&gt;&lt;br&gt;&lt;b&gt;עובדים:כניסה&lt;/b&gt;" style="html=1;align=center;verticalAlign=middle;dashed=0;whiteSpace=wrap;" parent="1" vertex="1">
          <mxGeometry x="60" y="350" width="120" height="40" as="geometry" />
        </mxCell>
        <mxCell id="rm8E94z--C5_kuMlvCXG-7" value="&lt;b&gt;מסך מנהל מערכת&lt;/b&gt;" style="verticalAlign=top;align=center;shape=cube;size=10;direction=south;fontStyle=0;html=1;boundedLbl=1;spacingLeft=5;whiteSpace=wrap;" parent="1" vertex="1">
          <mxGeometry x="280" y="40" width="130" height="180" as="geometry" />
        </mxCell>
        <mxCell id="rm8E94z--C5_kuMlvCXG-10" value="" style="endArrow=open;startArrow=none;endFill=0;startFill=0;endSize=8;html=1;verticalAlign=bottom;labelBackgroundColor=none;strokeWidth=1;rounded=0;exitX=1;exitY=0.5;exitDx=0;exitDy=0;entryX=0.334;entryY=0.982;entryDx=0;entryDy=0;entryPerimeter=0;" parent="1" source="rm8E94z--C5_kuMlvCXG-2" target="rm8E94z--C5_kuMlvCXG-7" edge="1">
          <mxGeometry width="160" relative="1" as="geometry">
            <mxPoint x="250" y="210" as="sourcePoint" />
            <mxPoint x="260" y="60" as="targetPoint" />
            <Array as="points">
              <mxPoint x="260" y="220" />
              <mxPoint x="260" y="100" />
            </Array>
          </mxGeometry>
        </mxCell>
        <mxCell id="rm8E94z--C5_kuMlvCXG-12" value="ניהול לקוחות" style="text;align=right;verticalAlign=middle;dashed=0;whiteSpace=wrap;" parent="1" vertex="1">
          <mxGeometry x="290" y="80" width="95" height="30" as="geometry" />
        </mxCell>
        <mxCell id="rm8E94z--C5_kuMlvCXG-14" value="ניהול מלאי" style="text;align=right;verticalAlign=middle;dashed=0;whiteSpace=wrap;" parent="1" vertex="1">
          <mxGeometry x="290" y="110" width="95" height="30" as="geometry" />
        </mxCell>
        <mxCell id="rm8E94z--C5_kuMlvCXG-15" value="יציאה" style="text;align=center;verticalAlign=middle;dashed=0;whiteSpace=wrap;" parent="1" vertex="1">
          <mxGeometry x="290" y="180" width="95" height="30" as="geometry" />
        </mxCell>
        <mxCell id="rm8E94z--C5_kuMlvCXG-16" value="&lt;b&gt;מסך לקוחות&lt;/b&gt;" style="verticalAlign=top;align=center;shape=cube;size=10;direction=south;fontStyle=0;html=1;boundedLbl=1;spacingLeft=5;whiteSpace=wrap;" parent="1" vertex="1">
          <mxGeometry x="280" y="240" width="130" height="180" as="geometry" />
        </mxCell>
        <mxCell id="rm8E94z--C5_kuMlvCXG-17" value="ניהול הזמנות" style="text;align=right;verticalAlign=middle;dashed=0;whiteSpace=wrap;" parent="1" vertex="1">
          <mxGeometry x="290" y="280" width="95" height="30" as="geometry" />
        </mxCell>
        <mxCell id="rm8E94z--C5_kuMlvCXG-18" value="ניהול תשלומים" style="text;align=right;verticalAlign=middle;dashed=0;whiteSpace=wrap;" parent="1" vertex="1">
          <mxGeometry x="290" y="305" width="95" height="30" as="geometry" />
        </mxCell>
        <mxCell id="rm8E94z--C5_kuMlvCXG-19" value="ניהול חשבון" style="text;align=right;verticalAlign=middle;dashed=0;whiteSpace=wrap;" parent="1" vertex="1">
          <mxGeometry x="290" y="330" width="95" height="30" as="geometry" />
        </mxCell>
        <mxCell id="rm8E94z--C5_kuMlvCXG-21" value="יציאה" style="text;align=center;verticalAlign=middle;dashed=0;whiteSpace=wrap;" parent="1" vertex="1">
          <mxGeometry x="290" y="380" width="95" height="30" as="geometry" />
        </mxCell>
        <mxCell id="rm8E94z--C5_kuMlvCXG-22" value="" style="endArrow=open;startArrow=none;endFill=0;startFill=0;endSize=8;html=1;verticalAlign=bottom;labelBackgroundColor=none;strokeWidth=1;rounded=0;exitX=1;exitY=0.5;exitDx=0;exitDy=0;" parent="1" source="rm8E94z--C5_kuMlvCXG-4" edge="1">
          <mxGeometry width="160" relative="1" as="geometry">
            <mxPoint x="240" y="340" as="sourcePoint" />
            <mxPoint x="280" y="270" as="targetPoint" />
          </mxGeometry>
        </mxCell>
        <mxCell id="rm8E94z--C5_kuMlvCXG-23" value="" style="endArrow=open;startArrow=none;endFill=0;startFill=0;endSize=8;html=1;verticalAlign=bottom;labelBackgroundColor=none;strokeWidth=1;rounded=0;exitX=1;exitY=0.5;exitDx=0;exitDy=0;" parent="1" edge="1">
          <mxGeometry width="160" relative="1" as="geometry">
            <mxPoint x="190" y="319.5" as="sourcePoint" />
            <mxPoint x="280" y="320" as="targetPoint" />
          </mxGeometry>
        </mxCell>
        <mxCell id="rm8E94z--C5_kuMlvCXG-24" value="&lt;b&gt;מסך עובדים&lt;/b&gt;" style="verticalAlign=top;align=center;shape=cube;size=10;direction=south;fontStyle=0;html=1;boundedLbl=1;spacingLeft=5;whiteSpace=wrap;" parent="1" vertex="1">
          <mxGeometry x="280" y="440" width="130" height="180" as="geometry" />
        </mxCell>
        <mxCell id="rm8E94z--C5_kuMlvCXG-25" value="יציאה" style="text;align=center;verticalAlign=middle;dashed=0;whiteSpace=wrap;" parent="1" vertex="1">
          <mxGeometry x="297.5" y="590" width="95" height="30" as="geometry" />
        </mxCell>
        <mxCell id="rm8E94z--C5_kuMlvCXG-26" value="ניהול הזמנות" style="text;align=center;verticalAlign=middle;dashed=0;whiteSpace=wrap;" parent="1" vertex="1">
          <mxGeometry x="290" y="480" width="95" height="30" as="geometry" />
        </mxCell>
        <mxCell id="rm8E94z--C5_kuMlvCXG-27" value="משלוחים" style="text;align=center;verticalAlign=middle;dashed=0;whiteSpace=wrap;" parent="1" vertex="1">
          <mxGeometry x="290" y="510" width="95" height="30" as="geometry" />
        </mxCell>
        <mxCell id="rm8E94z--C5_kuMlvCXG-28" value="שירות ללקוחות" style="text;align=center;verticalAlign=middle;dashed=0;whiteSpace=wrap;" parent="1" vertex="1">
          <mxGeometry x="290" y="530" width="95" height="30" as="geometry" />
        </mxCell>
        <mxCell id="rm8E94z--C5_kuMlvCXG-29" value="&lt;b&gt;שרת משוטף למנהל ועובדים&lt;/b&gt;" style="verticalAlign=top;align=center;shape=cube;size=10;direction=south;fontStyle=0;html=1;boundedLbl=1;spacingLeft=5;whiteSpace=wrap;" parent="1" vertex="1">
          <mxGeometry x="670" y="200" width="170" height="240" as="geometry" />
        </mxCell>
        <mxCell id="rm8E94z--C5_kuMlvCXG-30" value="ניהול מלאי" style="text;align=center;verticalAlign=middle;dashed=0;whiteSpace=wrap;" parent="1" vertex="1">
          <mxGeometry x="290" y="560" width="95" height="30" as="geometry" />
        </mxCell>
        <mxCell id="rm8E94z--C5_kuMlvCXG-32" value="&lt;b&gt;&lt;u&gt;ניהול מלאי&lt;br&gt;&lt;div style=&quot;text-align: right;&quot;&gt;&lt;span style=&quot;background-color: transparent; color: light-dark(rgb(0, 0, 0), rgb(255, 255, 255)); font-weight: normal;&quot;&gt;()הוספה&lt;/span&gt;&lt;/div&gt;&lt;/u&gt;&lt;/b&gt;&lt;div style=&quot;text-align: right;&quot;&gt;&lt;span style=&quot;background-color: transparent; color: light-dark(rgb(0, 0, 0), rgb(255, 255, 255));&quot;&gt;()&lt;/span&gt;הורדה&lt;/div&gt;&lt;div style=&quot;text-align: right;&quot;&gt;&lt;span style=&quot;background-color: transparent; color: light-dark(rgb(0, 0, 0), rgb(255, 255, 255));&quot;&gt;()&lt;/span&gt;צפיה&lt;/div&gt;&lt;div style=&quot;text-align: right;&quot;&gt;&lt;span style=&quot;background-color: transparent; color: light-dark(rgb(0, 0, 0), rgb(255, 255, 255));&quot;&gt;()&lt;/span&gt;עיקוב&lt;/div&gt;" style="html=1;align=center;verticalAlign=middle;rounded=0;absoluteArcSize=1;arcSize=10;dashed=0;whiteSpace=wrap;" parent="1" vertex="1">
          <mxGeometry x="700" y="245" width="100" height="90" as="geometry" />
        </mxCell>
        <mxCell id="rm8E94z--C5_kuMlvCXG-34" value="&lt;b&gt;&lt;u&gt;ניהול לקוחות&lt;/u&gt;&lt;/b&gt;&lt;br&gt;&lt;div style=&quot;text-align: right;&quot;&gt;&lt;span style=&quot;background-color: transparent; color: light-dark(rgb(0, 0, 0), rgb(255, 255, 255));&quot;&gt;()&lt;/span&gt;צפיה&lt;/div&gt;&lt;div style=&quot;text-align: right;&quot;&gt;&lt;span style=&quot;background-color: transparent; color: light-dark(rgb(0, 0, 0), rgb(255, 255, 255));&quot;&gt;()&lt;/span&gt;יצירת_קשר&lt;/div&gt;&lt;div style=&quot;text-align: right;&quot;&gt;*()מעקב_הזמנות&lt;/div&gt;" style="html=1;align=center;verticalAlign=middle;rounded=0;absoluteArcSize=1;arcSize=10;dashed=0;whiteSpace=wrap;" parent="1" vertex="1">
          <mxGeometry x="700" y="350" width="100" height="80" as="geometry" />
        </mxCell>
        <mxCell id="tW8vejqSsmhR7XON5HIB-1" value="ניהול מכירות" style="text;align=right;verticalAlign=middle;dashed=0;whiteSpace=wrap;" vertex="1" parent="1">
          <mxGeometry x="290" y="140" width="95" height="30" as="geometry" />
        </mxCell>
        <mxCell id="tW8vejqSsmhR7XON5HIB-2" value="" style="endArrow=open;startArrow=none;endFill=0;startFill=0;endSize=8;html=1;verticalAlign=bottom;labelBackgroundColor=none;strokeWidth=1;rounded=0;exitX=0.224;exitY=-0.017;exitDx=0;exitDy=0;exitPerimeter=0;" edge="1" parent="1">
          <mxGeometry width="160" relative="1" as="geometry">
            <mxPoint x="410.00000000000006" y="559.9999999999999" as="sourcePoint" />
            <mxPoint x="667.79" y="399.68" as="targetPoint" />
            <Array as="points">
              <mxPoint x="600" y="560" />
              <mxPoint x="600" y="400" />
            </Array>
          </mxGeometry>
        </mxCell>
        <mxCell id="tW8vejqSsmhR7XON5HIB-4" value="" style="endArrow=open;startArrow=none;endFill=0;startFill=0;endSize=8;html=1;verticalAlign=bottom;labelBackgroundColor=none;strokeWidth=1;rounded=0;exitX=0.889;exitY=0;exitDx=0;exitDy=0;exitPerimeter=0;" edge="1" parent="1" source="rm8E94z--C5_kuMlvCXG-7">
          <mxGeometry width="160" relative="1" as="geometry">
            <mxPoint x="438.81" y="200" as="sourcePoint" />
            <mxPoint x="670" y="300" as="targetPoint" />
            <Array as="points">
              <mxPoint x="588.81" y="200" />
              <mxPoint x="588.81" y="300" />
            </Array>
          </mxGeometry>
        </mxCell>
        <mxCell id="tW8vejqSsmhR7XON5HIB-6" value="" style="endArrow=open;startArrow=none;endFill=0;startFill=0;endSize=8;html=1;verticalAlign=bottom;labelBackgroundColor=none;strokeWidth=1;rounded=0;exitX=1;exitY=0.5;exitDx=0;exitDy=0;entryX=0.222;entryY=1.007;entryDx=0;entryDy=0;entryPerimeter=0;" edge="1" parent="1" target="rm8E94z--C5_kuMlvCXG-24">
          <mxGeometry width="160" relative="1" as="geometry">
            <mxPoint x="180" y="370" as="sourcePoint" />
            <mxPoint x="240" y="510.6530512595663" as="targetPoint" />
            <Array as="points">
              <mxPoint x="240" y="370" />
              <mxPoint x="240" y="480" />
            </Array>
          </mxGeometry>
        </mxCell>
        <mxCell id="tW8vejqSsmhR7XON5HIB-7" value="&lt;b&gt;שרת מנהל מערכת&lt;/b&gt;" style="verticalAlign=top;align=center;shape=cube;size=10;direction=south;fontStyle=0;html=1;boundedLbl=1;spacingLeft=5;whiteSpace=wrap;" vertex="1" parent="1">
          <mxGeometry x="500" y="10" width="130" height="180" as="geometry" />
        </mxCell>
        <mxCell id="tW8vejqSsmhR7XON5HIB-8" value="&lt;b&gt;&lt;u&gt;ניהול מכירות&lt;br&gt;&lt;/u&gt;&lt;/b&gt;&lt;div style=&quot;text-align: right;&quot;&gt;&lt;span style=&quot;background-color: transparent; color: light-dark(rgb(0, 0, 0), rgb(255, 255, 255));&quot;&gt;()&lt;/span&gt;שמירת_קבלות&lt;/div&gt;&lt;div style=&quot;text-align: right;&quot;&gt;&lt;span style=&quot;background-color: transparent; color: light-dark(rgb(0, 0, 0), rgb(255, 255, 255));&quot;&gt;()&lt;/span&gt;יצירת_דוח_מחירות&lt;/div&gt;&lt;div style=&quot;text-align: right;&quot;&gt;&lt;br&gt;&lt;/div&gt;" style="html=1;align=center;verticalAlign=middle;rounded=0;absoluteArcSize=1;arcSize=10;dashed=0;whiteSpace=wrap;" vertex="1" parent="1">
          <mxGeometry x="510" y="50" width="100" height="60" as="geometry" />
        </mxCell>
        <mxCell id="tW8vejqSsmhR7XON5HIB-10" value="&lt;b&gt;&lt;u&gt;ניהול לקוחות&lt;/u&gt;&lt;/b&gt;&lt;br&gt;&lt;div style=&quot;text-align: right;&quot;&gt;&lt;span style=&quot;background-color: transparent; color: light-dark(rgb(0, 0, 0), rgb(255, 255, 255));&quot;&gt;()&lt;/span&gt;מחיקת_לקוח&lt;/div&gt;" style="html=1;align=center;verticalAlign=middle;rounded=0;absoluteArcSize=1;arcSize=10;dashed=0;whiteSpace=wrap;" vertex="1" parent="1">
          <mxGeometry x="515" y="115" width="95" height="65" as="geometry" />
        </mxCell>
        <mxCell id="tW8vejqSsmhR7XON5HIB-11" value="" style="endArrow=open;startArrow=none;endFill=0;startFill=0;endSize=8;html=1;verticalAlign=bottom;labelBackgroundColor=none;strokeWidth=1;rounded=0;exitX=1;exitY=0.5;exitDx=0;exitDy=0;entryX=0.392;entryY=1.002;entryDx=0;entryDy=0;entryPerimeter=0;" edge="1" parent="1" target="tW8vejqSsmhR7XON5HIB-7">
          <mxGeometry width="160" relative="1" as="geometry">
            <mxPoint x="410" y="80" as="sourcePoint" />
            <mxPoint x="504" y="81" as="targetPoint" />
          </mxGeometry>
        </mxCell>
        <mxCell id="tW8vejqSsmhR7XON5HIB-12" value="&lt;b&gt;שרת לקוח&lt;/b&gt;" style="verticalAlign=top;align=center;shape=cube;size=10;direction=south;fontStyle=0;html=1;boundedLbl=1;spacingLeft=5;whiteSpace=wrap;" vertex="1" parent="1">
          <mxGeometry x="425" y="210" width="145" height="330" as="geometry" />
        </mxCell>
        <mxCell id="tW8vejqSsmhR7XON5HIB-17" value="&lt;b&gt;שרת מסד נתונים&lt;/b&gt;" style="verticalAlign=top;align=center;shape=cube;size=10;direction=south;fontStyle=0;html=1;boundedLbl=1;spacingLeft=5;whiteSpace=wrap;" vertex="1" parent="1">
          <mxGeometry x="960" y="160" width="130" height="210" as="geometry" />
        </mxCell>
        <mxCell id="tW8vejqSsmhR7XON5HIB-18" value="&lt;b&gt;&lt;u&gt;ניהול הזמנות&lt;/u&gt;&lt;/b&gt;&lt;div&gt;&lt;b&gt;&lt;u&gt;&lt;br&gt;&lt;/u&gt;&lt;/b&gt;&lt;/div&gt;" style="html=1;align=center;verticalAlign=top;rounded=0;absoluteArcSize=1;arcSize=10;dashed=0;whiteSpace=wrap;" vertex="1" parent="1">
          <mxGeometry x="440" y="245" width="100" height="90" as="geometry" />
        </mxCell>
        <mxCell id="tW8vejqSsmhR7XON5HIB-13" value="()עדכון_הזמנה&#xa; ()הזמנה_חדשה&#xa;()מעקב_הזמנות&#xa;()צפיה_בהזמנות" style="text;align=right;verticalAlign=top;dashed=0;whiteSpace=wrap;" vertex="1" parent="1">
          <mxGeometry x="440" y="265" width="95" height="50" as="geometry" />
        </mxCell>
        <mxCell id="tW8vejqSsmhR7XON5HIB-20" value="&lt;b&gt;&lt;u&gt;ניהול תשלומים&lt;/u&gt;&lt;/b&gt;&lt;div&gt;&lt;b&gt;&lt;u&gt;&lt;br&gt;&lt;/u&gt;&lt;/b&gt;&lt;/div&gt;" style="html=1;align=center;verticalAlign=top;rounded=0;absoluteArcSize=1;arcSize=10;dashed=0;whiteSpace=wrap;" vertex="1" parent="1">
          <mxGeometry x="440" y="340" width="110" height="90" as="geometry" />
        </mxCell>
        <mxCell id="tW8vejqSsmhR7XON5HIB-15" value="&#xa;()ביטול_מנוי&#xa;()שינוי_אמצעי_תשלום&#xa;()הרשמה_למנוי" style="text;align=right;verticalAlign=middle;dashed=0;whiteSpace=wrap;" vertex="1" parent="1">
          <mxGeometry x="447.5" y="380" width="100" height="30" as="geometry" />
        </mxCell>
        <mxCell id="tW8vejqSsmhR7XON5HIB-23" value="&lt;b&gt;&lt;u&gt;ניהול הזמנות&lt;/u&gt;&lt;/b&gt;&lt;div&gt;&lt;b&gt;&lt;u&gt;&lt;br&gt;&lt;/u&gt;&lt;/b&gt;&lt;/div&gt;" style="html=1;align=center;verticalAlign=top;rounded=0;absoluteArcSize=1;arcSize=10;dashed=0;whiteSpace=wrap;" vertex="1" parent="1">
          <mxGeometry x="445" y="440" width="100" height="90" as="geometry" />
        </mxCell>
        <mxCell id="tW8vejqSsmhR7XON5HIB-16" value="()צפיה_בפרופיל&#xa;()עדכון_פרופיל" style="text;align=right;verticalAlign=middle;dashed=0;whiteSpace=wrap;" vertex="1" parent="1">
          <mxGeometry x="447.5" y="470" width="95" height="30" as="geometry" />
        </mxCell>
        <mxCell id="tW8vejqSsmhR7XON5HIB-24" value="&amp;lt;&amp;lt;artifact&amp;gt;&amp;gt;&lt;br&gt;&lt;b&gt;מסדנתוני_מלאי&lt;/b&gt;" style="html=1;align=center;verticalAlign=middle;dashed=0;whiteSpace=wrap;" vertex="1" parent="1">
          <mxGeometry x="975" y="200" width="100" height="40" as="geometry" />
        </mxCell>
        <mxCell id="tW8vejqSsmhR7XON5HIB-25" value="&amp;lt;&amp;lt;artifact&amp;gt;&amp;gt;&lt;br&gt;&lt;b&gt;מסדנתוני_לקוח&lt;/b&gt;" style="html=1;align=center;verticalAlign=middle;dashed=0;whiteSpace=wrap;" vertex="1" parent="1">
          <mxGeometry x="975" y="250" width="100" height="40" as="geometry" />
        </mxCell>
        <mxCell id="tW8vejqSsmhR7XON5HIB-26" value="&amp;lt;&amp;lt;artifact&amp;gt;&amp;gt;&lt;br&gt;&lt;b&gt;מסדנתוני_מחירות&lt;/b&gt;" style="html=1;align=center;verticalAlign=middle;dashed=0;whiteSpace=wrap;" vertex="1" parent="1">
          <mxGeometry x="975" y="305" width="100" height="40" as="geometry" />
        </mxCell>
        <mxCell id="tW8vejqSsmhR7XON5HIB-27" value="" style="html=1;verticalAlign=bottom;labelBackgroundColor=none;endArrow=open;endFill=0;dashed=1;rounded=0;" edge="1" parent="1">
          <mxGeometry width="160" relative="1" as="geometry">
            <mxPoint x="610" y="80" as="sourcePoint" />
            <mxPoint x="980" y="320" as="targetPoint" />
            <Array as="points">
              <mxPoint x="920" y="80" />
              <mxPoint x="920" y="320" />
            </Array>
          </mxGeometry>
        </mxCell>
        <mxCell id="tW8vejqSsmhR7XON5HIB-28" value="" style="html=1;verticalAlign=bottom;labelBackgroundColor=none;endArrow=open;endFill=0;dashed=1;rounded=0;exitX=1;exitY=0.25;exitDx=0;exitDy=0;" edge="1" parent="1" source="tW8vejqSsmhR7XON5HIB-10">
          <mxGeometry width="160" relative="1" as="geometry">
            <mxPoint x="620" y="90" as="sourcePoint" />
            <mxPoint x="980" y="330" as="targetPoint" />
            <Array as="points">
              <mxPoint x="940" y="130" />
              <mxPoint x="940" y="330" />
            </Array>
          </mxGeometry>
        </mxCell>
        <mxCell id="tW8vejqSsmhR7XON5HIB-29" value="" style="html=1;verticalAlign=bottom;labelBackgroundColor=none;endArrow=open;endFill=0;dashed=1;rounded=0;entryX=0.286;entryY=1;entryDx=0;entryDy=0;entryPerimeter=0;" edge="1" parent="1" target="tW8vejqSsmhR7XON5HIB-17">
          <mxGeometry width="160" relative="1" as="geometry">
            <mxPoint x="800" y="280" as="sourcePoint" />
            <mxPoint x="880" y="200" as="targetPoint" />
            <Array as="points">
              <mxPoint x="880" y="280" />
              <mxPoint x="880" y="220" />
            </Array>
          </mxGeometry>
        </mxCell>
      </root>
    </mxGraphModel>
  </diagram>
</mxfile>
